<svg width="20" height="21" viewBox="0 0 20 21" fill="none" xmlns="http://www.w3.org/2000/svg">
<path d="M17.5 8.22498H11.875V2.59998C11.875 1.90974 11.3152 1.34998 10.625 1.34998H9.375C8.68477 1.34998 8.125 1.90974 8.125 2.59998V8.22498H2.5C1.80977 8.22498 1.25 8.78474 1.25 9.47498V10.725C1.25 11.4152 1.80977 11.975 2.5 11.975H8.125V17.6C8.125 18.2902 8.68477 18.85 9.375 18.85H10.625C11.3152 18.85 11.875 18.2902 11.875 17.6V11.975H17.5C18.1902 11.975 18.75 11.4152 18.75 10.725V9.47498C18.75 8.78474 18.1902 8.22498 17.5 8.22498Z" fill="#B4BDC6"/>
</svg>
