<svg width="20" height="21" viewBox="0 0 20 21" fill="none" xmlns="http://www.w3.org/2000/svg">
<g clip-path="url(#clip0_92_271)">
<path d="M19.4112 3.80185C18.1991 3.29341 16.9859 3.09998 15.7734 3.09998C11.9244 3.09966 8.07562 5.0481 4.22656 5.0481C3.26125 5.0481 2.29656 4.9256 1.33125 4.61935C1.22281 4.58498 1.11406 4.56873 1.00781 4.56873C0.47 4.56873 0 4.98498 0 5.56279V15.4772C0 15.8719 0.225938 16.2459 0.58875 16.3978C1.80094 16.9065 3.01406 17.1 4.22656 17.1C8.07562 17.1 11.9247 15.1515 15.7738 15.1515C16.7391 15.1515 17.7037 15.274 18.6691 15.5803C18.7775 15.6147 18.8862 15.6309 18.9925 15.6309C19.5303 15.6309 20.0003 15.2147 20.0003 14.6369V4.72279C20 4.32779 19.7741 3.95404 19.4112 3.80185ZM10 13.1C8.61906 13.1 7.5 11.7565 7.5 10.1C7.5 8.4431 8.61938 7.09998 10 7.09998C11.3806 7.09998 12.5 8.4431 12.5 10.1C12.5 11.7572 11.3803 13.1 10 13.1Z" fill="#B4BDC6"/>
</g>
<defs>
<clipPath id="clip0_92_271">
<rect width="20" height="20" fill="white" transform="translate(0 0.0999756)"/>
</clipPath>
</defs>
</svg>
