<svg width="307" height="300" viewBox="0 0 307 300" fill="none" xmlns="http://www.w3.org/2000/svg">
<rect width="269" height="270" rx="10" fill="#EFEFF9"/>
<circle cx="43" cy="61" r="4" fill="#C3C4FF"/>
<circle cx="76" cy="61" r="4" fill="#C3C4FF"/>
<circle cx="109" cy="61" r="4" fill="#C3C4FF"/>
<circle cx="142" cy="61" r="4" fill="#C3C4FF"/>
<circle cx="175" cy="61" r="4" fill="#C3C4FF"/>
<circle cx="208" cy="61" r="4" fill="#C3C4FF"/>
<circle cx="241" cy="61" r="4" fill="#C3C4FF"/>
<circle cx="43" cy="95" r="4" fill="#C3C4FF"/>
<circle cx="76" cy="95" r="4" fill="#C3C4FF"/>
<circle cx="109" cy="95" r="4" fill="#C3C4FF"/>
<circle cx="142" cy="95" r="4" fill="#C3C4FF"/>
<circle cx="175" cy="95" r="4" fill="#C3C4FF"/>
<circle cx="208" cy="95" r="4" fill="#C3C4FF"/>
<circle cx="241" cy="95" r="4" fill="#C3C4FF"/>
<circle cx="43" cy="129" r="4" fill="#C3C4FF"/>
<circle cx="76" cy="129" r="4" fill="#C3C4FF"/>
<circle cx="109" cy="129" r="4" fill="#C3C4FF"/>
<circle cx="142" cy="129" r="4" fill="#C3C4FF"/>
<circle cx="175" cy="129" r="4" fill="#C3C4FF"/>
<circle cx="208" cy="129" r="4" fill="#C3C4FF"/>
<circle cx="241" cy="129" r="4" fill="#C3C4FF"/>
<circle cx="43" cy="163" r="4" fill="#C3C4FF"/>
<circle cx="76" cy="163" r="4" fill="#C3C4FF"/>
<circle cx="109" cy="163" r="4" fill="#C3C4FF"/>
<circle cx="142" cy="163" r="4" fill="#C3C4FF"/>
<circle cx="175" cy="163" r="4" fill="#C3C4FF"/>
<circle cx="208" cy="163" r="4" fill="#C3C4FF"/>
<circle cx="241" cy="163" r="4" fill="#C3C4FF"/>
<circle cx="43" cy="197" r="4" fill="#C3C4FF"/>
<circle cx="76" cy="197" r="4" fill="#C3C4FF"/>
<circle cx="109" cy="197" r="4" fill="#C3C4FF"/>
<circle cx="142" cy="197" r="4" fill="#C3C4FF"/>
<circle cx="175" cy="197" r="4" fill="#C3C4FF"/>
<circle cx="208" cy="197" r="4" fill="#C3C4FF"/>
<circle cx="241" cy="197" r="4" fill="#C3C4FF"/>
<circle cx="43" cy="231" r="4" fill="#C3C4FF"/>
<circle cx="76" cy="231" r="4" fill="#C3C4FF"/>
<circle cx="109" cy="231" r="4" fill="#C3C4FF"/>
<circle cx="142" cy="231" r="4" fill="#C3C4FF"/>
<circle cx="175" cy="231" r="4" fill="#C3C4FF"/>
<circle cx="208" cy="231" r="4" fill="#C3C4FF"/>
<circle cx="241" cy="231" r="4" fill="#C3C4FF"/>
<rect x="133.5" y="126.5" width="173" height="173" rx="9.5" stroke="#CACFD8"/>
</svg>
