<svg width="206" height="178" viewBox="0 0 206 178" fill="none" xmlns="http://www.w3.org/2000/svg">
<circle cx="4" cy="4" r="4" fill="#C3C4FF"/>
<circle cx="37" cy="4" r="4" fill="#C3C4FF"/>
<circle cx="70" cy="4" r="4" fill="#C3C4FF"/>
<circle cx="103" cy="4" r="4" fill="#C3C4FF"/>
<circle cx="136" cy="4" r="4" fill="#C3C4FF"/>
<circle cx="169" cy="4" r="4" fill="#C3C4FF"/>
<circle cx="202" cy="4" r="4" fill="#C3C4FF"/>
<circle cx="4" cy="38" r="4" fill="#C3C4FF"/>
<circle cx="37" cy="38" r="4" fill="#C3C4FF"/>
<circle cx="70" cy="38" r="4" fill="#C3C4FF"/>
<circle cx="103" cy="38" r="4" fill="#C3C4FF"/>
<circle cx="136" cy="38" r="4" fill="#C3C4FF"/>
<circle cx="169" cy="38" r="4" fill="#C3C4FF"/>
<circle cx="202" cy="38" r="4" fill="#C3C4FF"/>
<circle cx="4" cy="72" r="4" fill="#C3C4FF"/>
<circle cx="37" cy="72" r="4" fill="#C3C4FF"/>
<circle cx="70" cy="72" r="4" fill="#C3C4FF"/>
<circle cx="103" cy="72" r="4" fill="#C3C4FF"/>
<circle cx="136" cy="72" r="4" fill="#C3C4FF"/>
<circle cx="169" cy="72" r="4" fill="#C3C4FF"/>
<circle cx="202" cy="72" r="4" fill="#C3C4FF"/>
<circle cx="4" cy="106" r="4" fill="#C3C4FF"/>
<circle cx="37" cy="106" r="4" fill="#C3C4FF"/>
<circle cx="70" cy="106" r="4" fill="#C3C4FF"/>
<circle cx="103" cy="106" r="4" fill="#C3C4FF"/>
<circle cx="136" cy="106" r="4" fill="#C3C4FF"/>
<circle cx="169" cy="106" r="4" fill="#C3C4FF"/>
<circle cx="202" cy="106" r="4" fill="#C3C4FF"/>
<circle cx="4" cy="140" r="4" fill="#C3C4FF"/>
<circle cx="37" cy="140" r="4" fill="#C3C4FF"/>
<circle cx="70" cy="140" r="4" fill="#C3C4FF"/>
<circle cx="103" cy="140" r="4" fill="#C3C4FF"/>
<circle cx="136" cy="140" r="4" fill="#C3C4FF"/>
<circle cx="169" cy="140" r="4" fill="#C3C4FF"/>
<circle cx="202" cy="140" r="4" fill="#C3C4FF"/>
<circle cx="4" cy="174" r="4" fill="#C3C4FF"/>
<circle cx="37" cy="174" r="4" fill="#C3C4FF"/>
<circle cx="70" cy="174" r="4" fill="#C3C4FF"/>
<circle cx="103" cy="174" r="4" fill="#C3C4FF"/>
<circle cx="136" cy="174" r="4" fill="#C3C4FF"/>
<circle cx="169" cy="174" r="4" fill="#C3C4FF"/>
<circle cx="202" cy="174" r="4" fill="#C3C4FF"/>
</svg>
