<svg width="25" height="25" viewBox="0 0 25 25" fill="none" xmlns="http://www.w3.org/2000/svg">
<g clip-path="url(#clip0_92_146)">
<path d="M12.1688 7.82374L4.16658 14.4145V21.5277C4.16658 21.7119 4.23975 21.8885 4.36998 22.0188C4.50022 22.149 4.67685 22.2222 4.86103 22.2222L9.72474 22.2096C9.90832 22.2087 10.0841 22.1351 10.2135 22.005C10.343 21.8748 10.4157 21.6987 10.4157 21.5152V17.3611C10.4157 17.1769 10.4889 17.0003 10.6191 16.87C10.7493 16.7398 10.926 16.6666 11.1102 16.6666H13.8879C14.0721 16.6666 14.2488 16.7398 14.379 16.87C14.5092 17.0003 14.5824 17.1769 14.5824 17.3611V21.5121C14.5821 21.6035 14.5998 21.694 14.6346 21.7785C14.6694 21.863 14.7205 21.9398 14.785 22.0046C14.8495 22.0693 14.9262 22.1206 15.0106 22.1557C15.095 22.1907 15.1854 22.2087 15.2768 22.2087L20.1388 22.2222C20.323 22.2222 20.4996 22.149 20.6299 22.0188C20.7601 21.8885 20.8333 21.7119 20.8333 21.5277V14.4097L12.8328 7.82374C12.7388 7.74793 12.6216 7.70659 12.5008 7.70659C12.38 7.70659 12.2628 7.74793 12.1688 7.82374ZM24.8089 12.3033L21.1805 9.31246V3.30074C21.1805 3.16261 21.1256 3.03013 21.0279 2.93246C20.9303 2.83478 20.7978 2.77991 20.6596 2.77991H18.2291C18.091 2.77991 17.9585 2.83478 17.8608 2.93246C17.7631 3.03013 17.7083 3.16261 17.7083 3.30074V6.45222L13.8224 3.25517C13.4495 2.9483 12.9816 2.78052 12.4986 2.78052C12.0157 2.78052 11.5477 2.9483 11.1748 3.25517L0.188286 12.3033C0.135546 12.3469 0.0919125 12.4005 0.0598778 12.461C0.027843 12.5214 0.00803527 12.5876 0.00158622 12.6557C-0.00486283 12.7238 0.00217325 12.7925 0.0222924 12.8579C0.0424116 12.9233 0.0752195 12.9841 0.118842 13.0369L1.22561 14.3823C1.26912 14.4352 1.32262 14.479 1.38308 14.5112C1.44353 14.5434 1.50974 14.5634 1.57791 14.5699C1.64608 14.5765 1.71488 14.5696 1.78037 14.5495C1.84586 14.5295 1.90675 14.4967 1.95955 14.4531L12.1688 6.04423C12.2628 5.96842 12.38 5.92707 12.5008 5.92707C12.6216 5.92707 12.7388 5.96842 12.8328 6.04423L23.0425 14.4531C23.0952 14.4967 23.156 14.5295 23.2214 14.5496C23.2868 14.5698 23.3555 14.5768 23.4236 14.5703C23.4917 14.5639 23.5579 14.5441 23.6184 14.512C23.6788 14.48 23.7324 14.4364 23.776 14.3836L24.8827 13.0382C24.9263 12.9851 24.959 12.924 24.9789 12.8583C24.9987 12.7927 25.0054 12.7237 24.9986 12.6554C24.9917 12.5871 24.9714 12.5209 24.9389 12.4605C24.9064 12.4 24.8622 12.3466 24.8089 12.3033Z" fill="#530BAE"/>
</g>
<defs>
<clipPath id="clip0_92_146">
<rect width="25" height="25" fill="white"/>
</clipPath>
</defs>
</svg>
