<svg width="274" height="149" viewBox="0 0 274 149" fill="none" xmlns="http://www.w3.org/2000/svg">
<g clip-path="url(#clip0_31_5)">
<g clip-path="url(#clip1_31_5)">
<path d="M128 144.08C129.105 144.08 130 144.976 130 146.08C130 147.185 129.105 148.08 128 148.08C126.895 148.08 126 147.185 126 146.08C126 144.976 126.895 144.08 128 144.08ZM155 144.08C156.105 144.08 157 144.976 157 146.08C157 147.185 156.105 148.08 155 148.08C153.895 148.08 153 147.185 153 146.08C153 144.976 153.895 144.08 155 144.08ZM185 144.08C186.105 144.08 187 144.976 187 146.08C187 147.185 186.105 148.08 185 148.08C183.895 148.08 183 147.185 183 146.08C183 144.976 183.895 144.08 185 144.08ZM215 144.08C216.105 144.08 217 144.976 217 146.08C217 147.185 216.105 148.08 215 148.08C213.895 148.08 213 147.185 213 146.08C213 144.976 213.895 144.08 215 144.08ZM245 144.08C246.105 144.08 247 144.976 247 146.08C247 147.185 246.105 148.08 245 148.08C243.895 148.08 243 147.185 243 146.08C243 144.976 243.895 144.08 245 144.08ZM272 144.08C273.105 144.08 274 144.976 274 146.08C274 147.185 273.105 148.08 272 148.08C270.895 148.08 270 147.185 270 146.08C270 144.976 270.895 144.08 272 144.08ZM128 117.08C129.105 117.08 130 117.976 130 119.08C130 120.185 129.105 121.08 128 121.08C126.895 121.08 126 120.185 126 119.08C126 117.976 126.895 117.08 128 117.08ZM155 117.08C156.105 117.08 157 117.976 157 119.08C157 120.185 156.105 121.08 155 121.08C153.895 121.08 153 120.185 153 119.08C153 117.976 153.895 117.08 155 117.08ZM185 117.08C186.105 117.08 187 117.976 187 119.08C187 120.185 186.105 121.08 185 121.08C183.895 121.08 183 120.185 183 119.08C183 117.976 183.895 117.08 185 117.08ZM215 117.08C216.105 117.08 217 117.976 217 119.08C217 120.185 216.105 121.08 215 121.08C213.895 121.08 213 120.185 213 119.08C213 117.976 213.895 117.08 215 117.08ZM245 117.08C246.105 117.08 247 117.976 247 119.08C247 120.185 246.105 121.08 245 121.08C243.895 121.08 243 120.185 243 119.08C243 117.976 243.895 117.08 245 117.08ZM272 117.08C273.105 117.08 274 117.976 274 119.08C274 120.185 273.105 121.08 272 121.08C270.895 121.08 270 120.185 270 119.08C270 117.976 270.895 117.08 272 117.08ZM128 87.0801C129.105 87.0801 130 87.9755 130 89.0801C130 90.1846 129.105 91.0801 128 91.0801C126.895 91.0801 126 90.1846 126 89.0801C126 87.9755 126.895 87.0801 128 87.0801ZM155 87.0801C156.105 87.0801 157 87.9755 157 89.0801C157 90.1846 156.105 91.0801 155 91.0801C153.895 91.0801 153 90.1846 153 89.0801C153 87.9755 153.895 87.0801 155 87.0801ZM185 87.0801C186.105 87.0801 187 87.9755 187 89.0801C187 90.1846 186.105 91.0801 185 91.0801C183.895 91.0801 183 90.1846 183 89.0801C183 87.9755 183.895 87.0801 185 87.0801ZM215 87.0801C216.105 87.0801 217 87.9755 217 89.0801C217 90.1846 216.105 91.0801 215 91.0801C213.895 91.0801 213 90.1846 213 89.0801C213 87.9755 213.895 87.0801 215 87.0801ZM245 87.0801C246.105 87.0801 247 87.9755 247 89.0801C247 90.1846 246.105 91.0801 245 91.0801C243.895 91.0801 243 90.1846 243 89.0801C243 87.9755 243.895 87.0801 245 87.0801ZM272 87.0801C273.105 87.0801 274 87.9755 274 89.0801C274 90.1846 273.105 91.0801 272 91.0801C270.895 91.0801 270 90.1846 270 89.0801C270 87.9755 270.895 87.0801 272 87.0801ZM128 57.0801C129.105 57.0801 130 57.9755 130 59.0801C130 60.1846 129.105 61.0801 128 61.0801C126.895 61.0801 126 60.1846 126 59.0801C126 57.9755 126.895 57.0801 128 57.0801ZM245 57.0801C246.105 57.0801 247 57.9755 247 59.0801C247 60.1846 246.105 61.0801 245 61.0801C243.895 61.0801 243 60.1846 243 59.0801C243 57.9755 243.895 57.0801 245 57.0801ZM185 57.0801C186.105 57.0801 187 57.9755 187 59.0801C187 60.1846 186.105 61.0801 185 61.0801C183.895 61.0801 183 60.1846 183 59.0801C183 57.9755 183.895 57.0801 185 57.0801ZM272 57.0801C273.105 57.0801 274 57.9755 274 59.0801C274 60.1846 273.105 61.0801 272 61.0801C270.895 61.0801 270 60.1846 270 59.0801C270 57.9755 270.895 57.0801 272 57.0801ZM155 57.0801C156.105 57.0801 157 57.9755 157 59.0801C157 60.1846 156.105 61.0801 155 61.0801C153.895 61.0801 153 60.1846 153 59.0801C153 57.9755 153.895 57.0801 155 57.0801ZM215 57.0801C216.105 57.0801 217 57.9755 217 59.0801C217 60.1846 216.105 61.0801 215 61.0801C213.895 61.0801 213 60.1846 213 59.0801C213 57.9755 213.895 57.0801 215 57.0801ZM128 27.0801C129.105 27.0801 130 27.9755 130 29.0801C130 30.1846 129.105 31.0801 128 31.0801C126.895 31.0801 126 30.1846 126 29.0801C126 27.9755 126.895 27.0801 128 27.0801ZM155 27.0801C156.105 27.0801 157 27.9755 157 29.0801C157 30.1846 156.105 31.0801 155 31.0801C153.895 31.0801 153 30.1846 153 29.0801C153 27.9755 153.895 27.0801 155 27.0801ZM185 27.0801C186.105 27.0801 187 27.9755 187 29.0801C187 30.1846 186.105 31.0801 185 31.0801C183.895 31.0801 183 30.1846 183 29.0801C183 27.9755 183.895 27.0801 185 27.0801ZM215 27.0801C216.105 27.0801 217 27.9755 217 29.0801C217 30.1846 216.105 31.0801 215 31.0801C213.895 31.0801 213 30.1846 213 29.0801C213 27.9755 213.895 27.0801 215 27.0801ZM245 27.0801C246.105 27.0801 247 27.9755 247 29.0801C247 30.1846 246.105 31.0801 245 31.0801C243.895 31.0801 243 30.1846 243 29.0801C243 27.9755 243.895 27.0801 245 27.0801ZM272 27.0801C273.105 27.0801 274 27.9755 274 29.0801C274 30.1846 273.105 31.0801 272 31.0801C270.895 31.0801 270 30.1846 270 29.0801C270 27.9755 270.895 27.0801 272 27.0801ZM128 0.0800781C129.105 0.0800781 130 0.975509 130 2.08008C130 3.18465 129.105 4.08008 128 4.08008C126.895 4.08008 126 3.18465 126 2.08008C126 0.975509 126.895 0.0800781 128 0.0800781ZM155 0.0800781C156.105 0.0800781 157 0.975509 157 2.08008C157 3.18465 156.105 4.08008 155 4.08008C153.895 4.08008 153 3.18465 153 2.08008C153 0.975509 153.895 0.0800781 155 0.0800781ZM185 0.0800781C186.105 0.0800781 187 0.975509 187 2.08008C187 3.18465 186.105 4.08008 185 4.08008C183.895 4.08008 183 3.18465 183 2.08008C183 0.975509 183.895 0.0800781 185 0.0800781ZM215 0.0800781C216.105 0.0800781 217 0.975509 217 2.08008C217 3.18465 216.105 4.08008 215 4.08008C213.895 4.08008 213 3.18465 213 2.08008C213 0.975509 213.895 0.0800781 215 0.0800781ZM245 0.0800781C246.105 0.0800781 247 0.975509 247 2.08008C247 3.18465 246.105 4.08008 245 4.08008C243.895 4.08008 243 3.18465 243 2.08008C243 0.975509 243.895 0.0800781 245 0.0800781ZM272 0.0800781C273.105 0.0800781 274 0.975509 274 2.08008C274 3.18465 273.105 4.08008 272 4.08008C270.895 4.08008 270 3.18465 270 2.08008C270 0.975509 270.895 0.0800781 272 0.0800781Z" fill="#696CFF"/>
<path d="M128 144.08C129.105 144.08 130 144.976 130 146.08C130 147.185 129.105 148.08 128 148.08C126.895 148.08 126 147.185 126 146.08C126 144.976 126.895 144.08 128 144.08ZM155 144.08C156.105 144.08 157 144.976 157 146.08C157 147.185 156.105 148.08 155 148.08C153.895 148.08 153 147.185 153 146.08C153 144.976 153.895 144.08 155 144.08ZM185 144.08C186.105 144.08 187 144.976 187 146.08C187 147.185 186.105 148.08 185 148.08C183.895 148.08 183 147.185 183 146.08C183 144.976 183.895 144.08 185 144.08ZM215 144.08C216.105 144.08 217 144.976 217 146.08C217 147.185 216.105 148.08 215 148.08C213.895 148.08 213 147.185 213 146.08C213 144.976 213.895 144.08 215 144.08ZM245 144.08C246.105 144.08 247 144.976 247 146.08C247 147.185 246.105 148.08 245 148.08C243.895 148.08 243 147.185 243 146.08C243 144.976 243.895 144.08 245 144.08ZM272 144.08C273.105 144.08 274 144.976 274 146.08C274 147.185 273.105 148.08 272 148.08C270.895 148.08 270 147.185 270 146.08C270 144.976 270.895 144.08 272 144.08ZM128 117.08C129.105 117.08 130 117.976 130 119.08C130 120.185 129.105 121.08 128 121.08C126.895 121.08 126 120.185 126 119.08C126 117.976 126.895 117.08 128 117.08ZM155 117.08C156.105 117.08 157 117.976 157 119.08C157 120.185 156.105 121.08 155 121.08C153.895 121.08 153 120.185 153 119.08C153 117.976 153.895 117.08 155 117.08ZM185 117.08C186.105 117.08 187 117.976 187 119.08C187 120.185 186.105 121.08 185 121.08C183.895 121.08 183 120.185 183 119.08C183 117.976 183.895 117.08 185 117.08ZM215 117.08C216.105 117.08 217 117.976 217 119.08C217 120.185 216.105 121.08 215 121.08C213.895 121.08 213 120.185 213 119.08C213 117.976 213.895 117.08 215 117.08ZM245 117.08C246.105 117.08 247 117.976 247 119.08C247 120.185 246.105 121.08 245 121.08C243.895 121.08 243 120.185 243 119.08C243 117.976 243.895 117.08 245 117.08ZM272 117.08C273.105 117.08 274 117.976 274 119.08C274 120.185 273.105 121.08 272 121.08C270.895 121.08 270 120.185 270 119.08C270 117.976 270.895 117.08 272 117.08ZM128 87.0801C129.105 87.0801 130 87.9755 130 89.0801C130 90.1846 129.105 91.0801 128 91.0801C126.895 91.0801 126 90.1846 126 89.0801C126 87.9755 126.895 87.0801 128 87.0801ZM155 87.0801C156.105 87.0801 157 87.9755 157 89.0801C157 90.1846 156.105 91.0801 155 91.0801C153.895 91.0801 153 90.1846 153 89.0801C153 87.9755 153.895 87.0801 155 87.0801ZM185 87.0801C186.105 87.0801 187 87.9755 187 89.0801C187 90.1846 186.105 91.0801 185 91.0801C183.895 91.0801 183 90.1846 183 89.0801C183 87.9755 183.895 87.0801 185 87.0801ZM215 87.0801C216.105 87.0801 217 87.9755 217 89.0801C217 90.1846 216.105 91.0801 215 91.0801C213.895 91.0801 213 90.1846 213 89.0801C213 87.9755 213.895 87.0801 215 87.0801ZM245 87.0801C246.105 87.0801 247 87.9755 247 89.0801C247 90.1846 246.105 91.0801 245 91.0801C243.895 91.0801 243 90.1846 243 89.0801C243 87.9755 243.895 87.0801 245 87.0801ZM272 87.0801C273.105 87.0801 274 87.9755 274 89.0801C274 90.1846 273.105 91.0801 272 91.0801C270.895 91.0801 270 90.1846 270 89.0801C270 87.9755 270.895 87.0801 272 87.0801ZM128 57.0801C129.105 57.0801 130 57.9755 130 59.0801C130 60.1846 129.105 61.0801 128 61.0801C126.895 61.0801 126 60.1846 126 59.0801C126 57.9755 126.895 57.0801 128 57.0801ZM245 57.0801C246.105 57.0801 247 57.9755 247 59.0801C247 60.1846 246.105 61.0801 245 61.0801C243.895 61.0801 243 60.1846 243 59.0801C243 57.9755 243.895 57.0801 245 57.0801ZM185 57.0801C186.105 57.0801 187 57.9755 187 59.0801C187 60.1846 186.105 61.0801 185 61.0801C183.895 61.0801 183 60.1846 183 59.0801C183 57.9755 183.895 57.0801 185 57.0801ZM272 57.0801C273.105 57.0801 274 57.9755 274 59.0801C274 60.1846 273.105 61.0801 272 61.0801C270.895 61.0801 270 60.1846 270 59.0801C270 57.9755 270.895 57.0801 272 57.0801ZM155 57.0801C156.105 57.0801 157 57.9755 157 59.0801C157 60.1846 156.105 61.0801 155 61.0801C153.895 61.0801 153 60.1846 153 59.0801C153 57.9755 153.895 57.0801 155 57.0801ZM215 57.0801C216.105 57.0801 217 57.9755 217 59.0801C217 60.1846 216.105 61.0801 215 61.0801C213.895 61.0801 213 60.1846 213 59.0801C213 57.9755 213.895 57.0801 215 57.0801ZM128 27.0801C129.105 27.0801 130 27.9755 130 29.0801C130 30.1846 129.105 31.0801 128 31.0801C126.895 31.0801 126 30.1846 126 29.0801C126 27.9755 126.895 27.0801 128 27.0801ZM155 27.0801C156.105 27.0801 157 27.9755 157 29.0801C157 30.1846 156.105 31.0801 155 31.0801C153.895 31.0801 153 30.1846 153 29.0801C153 27.9755 153.895 27.0801 155 27.0801ZM185 27.0801C186.105 27.0801 187 27.9755 187 29.0801C187 30.1846 186.105 31.0801 185 31.0801C183.895 31.0801 183 30.1846 183 29.0801C183 27.9755 183.895 27.0801 185 27.0801ZM215 27.0801C216.105 27.0801 217 27.9755 217 29.0801C217 30.1846 216.105 31.0801 215 31.0801C213.895 31.0801 213 30.1846 213 29.0801C213 27.9755 213.895 27.0801 215 27.0801ZM245 27.0801C246.105 27.0801 247 27.9755 247 29.0801C247 30.1846 246.105 31.0801 245 31.0801C243.895 31.0801 243 30.1846 243 29.0801C243 27.9755 243.895 27.0801 245 27.0801ZM272 27.0801C273.105 27.0801 274 27.9755 274 29.0801C274 30.1846 273.105 31.0801 272 31.0801C270.895 31.0801 270 30.1846 270 29.0801C270 27.9755 270.895 27.0801 272 27.0801ZM128 0.0800781C129.105 0.0800781 130 0.975509 130 2.08008C130 3.18465 129.105 4.08008 128 4.08008C126.895 4.08008 126 3.18465 126 2.08008C126 0.975509 126.895 0.0800781 128 0.0800781ZM155 0.0800781C156.105 0.0800781 157 0.975509 157 2.08008C157 3.18465 156.105 4.08008 155 4.08008C153.895 4.08008 153 3.18465 153 2.08008C153 0.975509 153.895 0.0800781 155 0.0800781ZM185 0.0800781C186.105 0.0800781 187 0.975509 187 2.08008C187 3.18465 186.105 4.08008 185 4.08008C183.895 4.08008 183 3.18465 183 2.08008C183 0.975509 183.895 0.0800781 185 0.0800781ZM215 0.0800781C216.105 0.0800781 217 0.975509 217 2.08008C217 3.18465 216.105 4.08008 215 4.08008C213.895 4.08008 213 3.18465 213 2.08008C213 0.975509 213.895 0.0800781 215 0.0800781ZM245 0.0800781C246.105 0.0800781 247 0.975509 247 2.08008C247 3.18465 246.105 4.08008 245 4.08008C243.895 4.08008 243 3.18465 243 2.08008C243 0.975509 243.895 0.0800781 245 0.0800781ZM272 0.0800781C273.105 0.0800781 274 0.975509 274 2.08008C274 3.18465 273.105 4.08008 272 4.08008C270.895 4.08008 270 3.18465 270 2.08008C270 0.975509 270.895 0.0800781 272 0.0800781Z" fill="white" fill-opacity="0.6"/>
</g>
</g>
<defs>
<clipPath id="clip0_31_5">
<rect width="148" height="148" fill="white" transform="translate(126 0.0800781)"/>
</clipPath>
<clipPath id="clip1_31_5">
<rect width="148" height="148" fill="white" transform="translate(126 0.0800781)"/>
</clipPath>
</defs>
</svg>
