<svg width="148" height="149" viewBox="0 0 148 149" fill="none" xmlns="http://www.w3.org/2000/svg">
<g clip-path="url(#clip0_32_39)">
<g clip-path="url(#clip1_32_39)">
<path d="M2 144.65C3.10457 144.65 4 145.545 4 146.65C4 147.755 3.10457 148.65 2 148.65C0.895431 148.65 0 147.755 0 146.65C0 145.545 0.895431 144.65 2 144.65ZM29 144.65C30.1046 144.65 31 145.545 31 146.65C31 147.755 30.1046 148.65 29 148.65C27.8954 148.65 27 147.755 27 146.65C27 145.545 27.8954 144.65 29 144.65ZM59 144.65C60.1046 144.65 61 145.545 61 146.65C61 147.755 60.1046 148.65 59 148.65C57.8954 148.65 57 147.755 57 146.65C57 145.545 57.8954 144.65 59 144.65ZM89 144.65C90.1046 144.65 91 145.545 91 146.65C91 147.755 90.1046 148.65 89 148.65C87.8954 148.65 87 147.755 87 146.65C87 145.545 87.8954 144.65 89 144.65ZM119 144.65C120.105 144.65 121 145.545 121 146.65C121 147.755 120.105 148.65 119 148.65C117.895 148.65 117 147.755 117 146.65C117 145.545 117.895 144.65 119 144.65ZM146 144.65C147.105 144.65 148 145.545 148 146.65C148 147.755 147.105 148.65 146 148.65C144.895 148.65 144 147.755 144 146.65C144 145.545 144.895 144.65 146 144.65ZM2 117.65C3.10457 117.65 4 118.545 4 119.65C4 120.755 3.10457 121.65 2 121.65C0.895431 121.65 0 120.755 0 119.65C0 118.545 0.895431 117.65 2 117.65ZM29 117.65C30.1046 117.65 31 118.545 31 119.65C31 120.755 30.1046 121.65 29 121.65C27.8954 121.65 27 120.755 27 119.65C27 118.545 27.8954 117.65 29 117.65ZM59 117.65C60.1046 117.65 61 118.545 61 119.65C61 120.755 60.1046 121.65 59 121.65C57.8954 121.65 57 120.755 57 119.65C57 118.545 57.8954 117.65 59 117.65ZM89 117.65C90.1046 117.65 91 118.545 91 119.65C91 120.755 90.1046 121.65 89 121.65C87.8954 121.65 87 120.755 87 119.65C87 118.545 87.8954 117.65 89 117.65ZM119 117.65C120.105 117.65 121 118.545 121 119.65C121 120.755 120.105 121.65 119 121.65C117.895 121.65 117 120.755 117 119.65C117 118.545 117.895 117.65 119 117.65ZM146 117.65C147.105 117.65 148 118.545 148 119.65C148 120.755 147.105 121.65 146 121.65C144.895 121.65 144 120.755 144 119.65C144 118.545 144.895 117.65 146 117.65ZM2 87.65C3.10457 87.65 4 88.5455 4 89.65C4 90.7546 3.10457 91.65 2 91.65C0.895431 91.65 0 90.7546 0 89.65C0 88.5455 0.895431 87.65 2 87.65ZM29 87.65C30.1046 87.65 31 88.5455 31 89.65C31 90.7546 30.1046 91.65 29 91.65C27.8954 91.65 27 90.7546 27 89.65C27 88.5455 27.8954 87.65 29 87.65ZM59 87.65C60.1046 87.65 61 88.5455 61 89.65C61 90.7546 60.1046 91.65 59 91.65C57.8954 91.65 57 90.7546 57 89.65C57 88.5455 57.8954 87.65 59 87.65ZM89 87.65C90.1046 87.65 91 88.5455 91 89.65C91 90.7546 90.1046 91.65 89 91.65C87.8954 91.65 87 90.7546 87 89.65C87 88.5455 87.8954 87.65 89 87.65ZM119 87.65C120.105 87.65 121 88.5455 121 89.65C121 90.7546 120.105 91.65 119 91.65C117.895 91.65 117 90.7546 117 89.65C117 88.5455 117.895 87.65 119 87.65ZM146 87.65C147.105 87.65 148 88.5455 148 89.65C148 90.7546 147.105 91.65 146 91.65C144.895 91.65 144 90.7546 144 89.65C144 88.5455 144.895 87.65 146 87.65ZM2 57.65C3.10457 57.65 4 58.5455 4 59.65C4 60.7546 3.10457 61.65 2 61.65C0.895431 61.65 0 60.7546 0 59.65C0 58.5455 0.895431 57.65 2 57.65ZM119 57.65C120.105 57.65 121 58.5455 121 59.65C121 60.7546 120.105 61.65 119 61.65C117.895 61.65 117 60.7546 117 59.65C117 58.5455 117.895 57.65 119 57.65ZM59 57.65C60.1046 57.65 61 58.5455 61 59.65C61 60.7546 60.1046 61.65 59 61.65C57.8954 61.65 57 60.7546 57 59.65C57 58.5455 57.8954 57.65 59 57.65ZM146 57.65C147.105 57.65 148 58.5455 148 59.65C148 60.7546 147.105 61.65 146 61.65C144.895 61.65 144 60.7546 144 59.65C144 58.5455 144.895 57.65 146 57.65ZM29 57.65C30.1046 57.65 31 58.5455 31 59.65C31 60.7546 30.1046 61.65 29 61.65C27.8954 61.65 27 60.7546 27 59.65C27 58.5455 27.8954 57.65 29 57.65ZM89 57.65C90.1046 57.65 91 58.5455 91 59.65C91 60.7546 90.1046 61.65 89 61.65C87.8954 61.65 87 60.7546 87 59.65C87 58.5455 87.8954 57.65 89 57.65ZM2 27.65C3.10457 27.65 4 28.5455 4 29.65C4 30.7546 3.10457 31.65 2 31.65C0.895431 31.65 0 30.7546 0 29.65C0 28.5455 0.895431 27.65 2 27.65ZM29 27.65C30.1046 27.65 31 28.5455 31 29.65C31 30.7546 30.1046 31.65 29 31.65C27.8954 31.65 27 30.7546 27 29.65C27 28.5455 27.8954 27.65 29 27.65ZM59 27.65C60.1046 27.65 61 28.5455 61 29.65C61 30.7546 60.1046 31.65 59 31.65C57.8954 31.65 57 30.7546 57 29.65C57 28.5455 57.8954 27.65 59 27.65ZM89 27.65C90.1046 27.65 91 28.5455 91 29.65C91 30.7546 90.1046 31.65 89 31.65C87.8954 31.65 87 30.7546 87 29.65C87 28.5455 87.8954 27.65 89 27.65ZM119 27.65C120.105 27.65 121 28.5455 121 29.65C121 30.7546 120.105 31.65 119 31.65C117.895 31.65 117 30.7546 117 29.65C117 28.5455 117.895 27.65 119 27.65ZM146 27.65C147.105 27.65 148 28.5455 148 29.65C148 30.7546 147.105 31.65 146 31.65C144.895 31.65 144 30.7546 144 29.65C144 28.5455 144.895 27.65 146 27.65ZM2 0.650024C3.10457 0.650024 4 1.54545 4 2.65002C4 3.75459 3.10457 4.65002 2 4.65002C0.895431 4.65002 0 3.75459 0 2.65002C0 1.54545 0.895431 0.650024 2 0.650024ZM29 0.650024C30.1046 0.650024 31 1.54545 31 2.65002C31 3.75459 30.1046 4.65002 29 4.65002C27.8954 4.65002 27 3.75459 27 2.65002C27 1.54545 27.8954 0.650024 29 0.650024ZM59 0.650024C60.1046 0.650024 61 1.54545 61 2.65002C61 3.75459 60.1046 4.65002 59 4.65002C57.8954 4.65002 57 3.75459 57 2.65002C57 1.54545 57.8954 0.650024 59 0.650024ZM89 0.650024C90.1046 0.650024 91 1.54545 91 2.65002C91 3.75459 90.1046 4.65002 89 4.65002C87.8954 4.65002 87 3.75459 87 2.65002C87 1.54545 87.8954 0.650024 89 0.650024ZM119 0.650024C120.105 0.650024 121 1.54545 121 2.65002C121 3.75459 120.105 4.65002 119 4.65002C117.895 4.65002 117 3.75459 117 2.65002C117 1.54545 117.895 0.650024 119 0.650024ZM146 0.650024C147.105 0.650024 148 1.54545 148 2.65002C148 3.75459 147.105 4.65002 146 4.65002C144.895 4.65002 144 3.75459 144 2.65002C144 1.54545 144.895 0.650024 146 0.650024Z" fill="#696CFF"/>
<path d="M2 144.65C3.10457 144.65 4 145.545 4 146.65C4 147.755 3.10457 148.65 2 148.65C0.895431 148.65 0 147.755 0 146.65C0 145.545 0.895431 144.65 2 144.65ZM29 144.65C30.1046 144.65 31 145.545 31 146.65C31 147.755 30.1046 148.65 29 148.65C27.8954 148.65 27 147.755 27 146.65C27 145.545 27.8954 144.65 29 144.65ZM59 144.65C60.1046 144.65 61 145.545 61 146.65C61 147.755 60.1046 148.65 59 148.65C57.8954 148.65 57 147.755 57 146.65C57 145.545 57.8954 144.65 59 144.65ZM89 144.65C90.1046 144.65 91 145.545 91 146.65C91 147.755 90.1046 148.65 89 148.65C87.8954 148.65 87 147.755 87 146.65C87 145.545 87.8954 144.65 89 144.65ZM119 144.65C120.105 144.65 121 145.545 121 146.65C121 147.755 120.105 148.65 119 148.65C117.895 148.65 117 147.755 117 146.65C117 145.545 117.895 144.65 119 144.65ZM146 144.65C147.105 144.65 148 145.545 148 146.65C148 147.755 147.105 148.65 146 148.65C144.895 148.65 144 147.755 144 146.65C144 145.545 144.895 144.65 146 144.65ZM2 117.65C3.10457 117.65 4 118.545 4 119.65C4 120.755 3.10457 121.65 2 121.65C0.895431 121.65 0 120.755 0 119.65C0 118.545 0.895431 117.65 2 117.65ZM29 117.65C30.1046 117.65 31 118.545 31 119.65C31 120.755 30.1046 121.65 29 121.65C27.8954 121.65 27 120.755 27 119.65C27 118.545 27.8954 117.65 29 117.65ZM59 117.65C60.1046 117.65 61 118.545 61 119.65C61 120.755 60.1046 121.65 59 121.65C57.8954 121.65 57 120.755 57 119.65C57 118.545 57.8954 117.65 59 117.65ZM89 117.65C90.1046 117.65 91 118.545 91 119.65C91 120.755 90.1046 121.65 89 121.65C87.8954 121.65 87 120.755 87 119.65C87 118.545 87.8954 117.65 89 117.65ZM119 117.65C120.105 117.65 121 118.545 121 119.65C121 120.755 120.105 121.65 119 121.65C117.895 121.65 117 120.755 117 119.65C117 118.545 117.895 117.65 119 117.65ZM146 117.65C147.105 117.65 148 118.545 148 119.65C148 120.755 147.105 121.65 146 121.65C144.895 121.65 144 120.755 144 119.65C144 118.545 144.895 117.65 146 117.65ZM2 87.65C3.10457 87.65 4 88.5455 4 89.65C4 90.7546 3.10457 91.65 2 91.65C0.895431 91.65 0 90.7546 0 89.65C0 88.5455 0.895431 87.65 2 87.65ZM29 87.65C30.1046 87.65 31 88.5455 31 89.65C31 90.7546 30.1046 91.65 29 91.65C27.8954 91.65 27 90.7546 27 89.65C27 88.5455 27.8954 87.65 29 87.65ZM59 87.65C60.1046 87.65 61 88.5455 61 89.65C61 90.7546 60.1046 91.65 59 91.65C57.8954 91.65 57 90.7546 57 89.65C57 88.5455 57.8954 87.65 59 87.65ZM89 87.65C90.1046 87.65 91 88.5455 91 89.65C91 90.7546 90.1046 91.65 89 91.65C87.8954 91.65 87 90.7546 87 89.65C87 88.5455 87.8954 87.65 89 87.65ZM119 87.65C120.105 87.65 121 88.5455 121 89.65C121 90.7546 120.105 91.65 119 91.65C117.895 91.65 117 90.7546 117 89.65C117 88.5455 117.895 87.65 119 87.65ZM146 87.65C147.105 87.65 148 88.5455 148 89.65C148 90.7546 147.105 91.65 146 91.65C144.895 91.65 144 90.7546 144 89.65C144 88.5455 144.895 87.65 146 87.65ZM2 57.65C3.10457 57.65 4 58.5455 4 59.65C4 60.7546 3.10457 61.65 2 61.65C0.895431 61.65 0 60.7546 0 59.65C0 58.5455 0.895431 57.65 2 57.65ZM119 57.65C120.105 57.65 121 58.5455 121 59.65C121 60.7546 120.105 61.65 119 61.65C117.895 61.65 117 60.7546 117 59.65C117 58.5455 117.895 57.65 119 57.65ZM59 57.65C60.1046 57.65 61 58.5455 61 59.65C61 60.7546 60.1046 61.65 59 61.65C57.8954 61.65 57 60.7546 57 59.65C57 58.5455 57.8954 57.65 59 57.65ZM146 57.65C147.105 57.65 148 58.5455 148 59.65C148 60.7546 147.105 61.65 146 61.65C144.895 61.65 144 60.7546 144 59.65C144 58.5455 144.895 57.65 146 57.65ZM29 57.65C30.1046 57.65 31 58.5455 31 59.65C31 60.7546 30.1046 61.65 29 61.65C27.8954 61.65 27 60.7546 27 59.65C27 58.5455 27.8954 57.65 29 57.65ZM89 57.65C90.1046 57.65 91 58.5455 91 59.65C91 60.7546 90.1046 61.65 89 61.65C87.8954 61.65 87 60.7546 87 59.65C87 58.5455 87.8954 57.65 89 57.65ZM2 27.65C3.10457 27.65 4 28.5455 4 29.65C4 30.7546 3.10457 31.65 2 31.65C0.895431 31.65 0 30.7546 0 29.65C0 28.5455 0.895431 27.65 2 27.65ZM29 27.65C30.1046 27.65 31 28.5455 31 29.65C31 30.7546 30.1046 31.65 29 31.65C27.8954 31.65 27 30.7546 27 29.65C27 28.5455 27.8954 27.65 29 27.65ZM59 27.65C60.1046 27.65 61 28.5455 61 29.65C61 30.7546 60.1046 31.65 59 31.65C57.8954 31.65 57 30.7546 57 29.65C57 28.5455 57.8954 27.65 59 27.65ZM89 27.65C90.1046 27.65 91 28.5455 91 29.65C91 30.7546 90.1046 31.65 89 31.65C87.8954 31.65 87 30.7546 87 29.65C87 28.5455 87.8954 27.65 89 27.65ZM119 27.65C120.105 27.65 121 28.5455 121 29.65C121 30.7546 120.105 31.65 119 31.65C117.895 31.65 117 30.7546 117 29.65C117 28.5455 117.895 27.65 119 27.65ZM146 27.65C147.105 27.65 148 28.5455 148 29.65C148 30.7546 147.105 31.65 146 31.65C144.895 31.65 144 30.7546 144 29.65C144 28.5455 144.895 27.65 146 27.65ZM2 0.650024C3.10457 0.650024 4 1.54545 4 2.65002C4 3.75459 3.10457 4.65002 2 4.65002C0.895431 4.65002 0 3.75459 0 2.65002C0 1.54545 0.895431 0.650024 2 0.650024ZM29 0.650024C30.1046 0.650024 31 1.54545 31 2.65002C31 3.75459 30.1046 4.65002 29 4.65002C27.8954 4.65002 27 3.75459 27 2.65002C27 1.54545 27.8954 0.650024 29 0.650024ZM59 0.650024C60.1046 0.650024 61 1.54545 61 2.65002C61 3.75459 60.1046 4.65002 59 4.65002C57.8954 4.65002 57 3.75459 57 2.65002C57 1.54545 57.8954 0.650024 59 0.650024ZM89 0.650024C90.1046 0.650024 91 1.54545 91 2.65002C91 3.75459 90.1046 4.65002 89 4.65002C87.8954 4.65002 87 3.75459 87 2.65002C87 1.54545 87.8954 0.650024 89 0.650024ZM119 0.650024C120.105 0.650024 121 1.54545 121 2.65002C121 3.75459 120.105 4.65002 119 4.65002C117.895 4.65002 117 3.75459 117 2.65002C117 1.54545 117.895 0.650024 119 0.650024ZM146 0.650024C147.105 0.650024 148 1.54545 148 2.65002C148 3.75459 147.105 4.65002 146 4.65002C144.895 4.65002 144 3.75459 144 2.65002C144 1.54545 144.895 0.650024 146 0.650024Z" fill="white" fill-opacity="0.6"/>
</g>
</g>
<defs>
<clipPath id="clip0_32_39">
<rect width="148" height="148" fill="white" transform="translate(0 0.650024)"/>
</clipPath>
<clipPath id="clip1_32_39">
<rect width="148" height="148" fill="white" transform="translate(0 0.650024)"/>
</clipPath>
</defs>
</svg>
