<svg width="243" height="241" viewBox="0 0 243 241" fill="none" xmlns="http://www.w3.org/2000/svg">
<g clip-path="url(#clip0_32_47)">
<g clip-path="url(#clip1_32_47)">
<path opacity="0.04" d="M205 0.950073H10C4.47715 0.950073 0 5.42723 0 10.9501V206.95C0 212.473 4.47715 216.95 10 216.95H205C210.523 216.95 215 212.473 215 206.95V10.9501C215 5.42723 210.523 0.950073 205 0.950073Z" fill="#696CFF"/>
<path opacity="0.48" d="M232.5 101.45H114.5C108.977 101.45 104.5 105.927 104.5 111.45V230.45C104.5 235.973 108.977 240.45 114.5 240.45H232.5C238.023 240.45 242.5 235.973 242.5 230.45V111.45C242.5 105.927 238.023 101.45 232.5 101.45Z" stroke="#435971" stroke-opacity="0.5"/>
<path d="M34.5 182.95C35.8807 182.95 37 184.069 37 185.45C37 186.831 35.8807 187.95 34.5 187.95C33.1193 187.95 32 186.831 32 185.45C32 184.069 33.1193 182.95 34.5 182.95ZM61.5 182.95C62.8807 182.95 64 184.069 64 185.45C64 186.831 62.8807 187.95 61.5 187.95C60.1193 187.95 59 186.831 59 185.45C59 184.069 60.1193 182.95 61.5 182.95ZM91.5 182.95C92.8807 182.95 94 184.069 94 185.45C94 186.831 92.8807 187.95 91.5 187.95C90.1193 187.95 89 186.831 89 185.45C89 184.069 90.1193 182.95 91.5 182.95ZM123.5 182.95C124.881 182.95 126 184.069 126 185.45C126 186.831 124.881 187.95 123.5 187.95C122.119 187.95 121 186.831 121 185.45C121 184.069 122.119 182.95 123.5 182.95ZM153.5 182.95C154.881 182.95 156 184.069 156 185.45C156 186.831 154.881 187.95 153.5 187.95C152.119 187.95 151 186.831 151 185.45C151 184.069 152.119 182.95 153.5 182.95ZM180.5 182.95C181.881 182.95 183 184.069 183 185.45C183 186.831 181.881 187.95 180.5 187.95C179.119 187.95 178 186.831 178 185.45C178 184.069 179.119 182.95 180.5 182.95ZM34.5 154.95C35.8807 154.95 37 156.069 37 157.45C37 158.831 35.8807 159.95 34.5 159.95C33.1193 159.95 32 158.831 32 157.45C32 156.069 33.1193 154.95 34.5 154.95ZM61.5 154.95C62.8807 154.95 64 156.069 64 157.45C64 158.831 62.8807 159.95 61.5 159.95C60.1193 159.95 59 158.831 59 157.45C59 156.069 60.1193 154.95 61.5 154.95ZM91.5 154.95C92.8807 154.95 94 156.069 94 157.45C94 158.831 92.8807 159.95 91.5 159.95C90.1193 159.95 89 158.831 89 157.45C89 156.069 90.1193 154.95 91.5 154.95ZM123.5 154.95C124.881 154.95 126 156.069 126 157.45C126 158.831 124.881 159.95 123.5 159.95C122.119 159.95 121 158.831 121 157.45C121 156.069 122.119 154.95 123.5 154.95ZM153.5 154.95C154.881 154.95 156 156.069 156 157.45C156 158.831 154.881 159.95 153.5 159.95C152.119 159.95 151 158.831 151 157.45C151 156.069 152.119 154.95 153.5 154.95ZM180.5 154.95C181.881 154.95 183 156.069 183 157.45C183 158.831 181.881 159.95 180.5 159.95C179.119 159.95 178 158.831 178 157.45C178 156.069 179.119 154.95 180.5 154.95ZM34.5 124.95C35.8807 124.95 37 126.069 37 127.45C37 128.831 35.8807 129.95 34.5 129.95C33.1193 129.95 32 128.831 32 127.45C32 126.069 33.1193 124.95 34.5 124.95ZM61.5 124.95C62.8807 124.95 64 126.069 64 127.45C64 128.831 62.8807 129.95 61.5 129.95C60.1193 129.95 59 128.831 59 127.45C59 126.069 60.1193 124.95 61.5 124.95ZM91.5 124.95C92.8807 124.95 94 126.069 94 127.45C94 128.831 92.8807 129.95 91.5 129.95C90.1193 129.95 89 128.831 89 127.45C89 126.069 90.1193 124.95 91.5 124.95ZM123.5 124.95C124.881 124.95 126 126.069 126 127.45C126 128.831 124.881 129.95 123.5 129.95C122.119 129.95 121 128.831 121 127.45C121 126.069 122.119 124.95 123.5 124.95ZM153.5 124.95C154.881 124.95 156 126.069 156 127.45C156 128.831 154.881 129.95 153.5 129.95C152.119 129.95 151 128.831 151 127.45C151 126.069 152.119 124.95 153.5 124.95ZM180.5 124.95C181.881 124.95 183 126.069 183 127.45C183 128.831 181.881 129.95 180.5 129.95C179.119 129.95 178 128.831 178 127.45C178 126.069 179.119 124.95 180.5 124.95ZM34.5 94.9501C35.8807 94.9501 37 96.0694 37 97.4501C37 98.8308 35.8807 99.9501 34.5 99.9501C33.1193 99.9501 32 98.8308 32 97.4501C32 96.0694 33.1193 94.9501 34.5 94.9501ZM153.5 94.9501C154.881 94.9501 156 96.0694 156 97.4501C156 98.8308 154.881 99.9501 153.5 99.9501C152.119 99.9501 151 98.8308 151 97.4501C151 96.0694 152.119 94.9501 153.5 94.9501ZM91.5 94.9501C92.8807 94.9501 94 96.0694 94 97.4501C94 98.8308 92.8807 99.9501 91.5 99.9501C90.1193 99.9501 89 98.8308 89 97.4501C89 96.0694 90.1193 94.9501 91.5 94.9501ZM180.5 94.9501C181.881 94.9501 183 96.0694 183 97.4501C183 98.8308 181.881 99.9501 180.5 99.9501C179.119 99.9501 178 98.8308 178 97.4501C178 96.0694 179.119 94.9501 180.5 94.9501ZM61.5 94.9501C62.8807 94.9501 64 96.0694 64 97.4501C64 98.8308 62.8807 99.9501 61.5 99.9501C60.1193 99.9501 59 98.8308 59 97.4501C59 96.0694 60.1193 94.9501 61.5 94.9501ZM123.5 94.9501C124.881 94.9501 126 96.0694 126 97.4501C126 98.8308 124.881 99.9501 123.5 99.9501C122.119 99.9501 121 98.8308 121 97.4501C121 96.0694 122.119 94.9501 123.5 94.9501ZM34.5 64.9501C35.8807 64.9501 37 66.0694 37 67.4501C37 68.8308 35.8807 69.9501 34.5 69.9501C33.1193 69.9501 32 68.8308 32 67.4501C32 66.0694 33.1193 64.9501 34.5 64.9501ZM61.5 64.9501C62.8807 64.9501 64 66.0694 64 67.4501C64 68.8308 62.8807 69.9501 61.5 69.9501C60.1193 69.9501 59 68.8308 59 67.4501C59 66.0694 60.1193 64.9501 61.5 64.9501ZM91.5 64.9501C92.8807 64.9501 94 66.0694 94 67.4501C94 68.8308 92.8807 69.9501 91.5 69.9501C90.1193 69.9501 89 68.8308 89 67.4501C89 66.0694 90.1193 64.9501 91.5 64.9501ZM123.5 64.9501C124.881 64.9501 126 66.0694 126 67.4501C126 68.8308 124.881 69.9501 123.5 69.9501C122.119 69.9501 121 68.8308 121 67.4501C121 66.0694 122.119 64.9501 123.5 64.9501ZM153.5 64.9501C154.881 64.9501 156 66.0694 156 67.4501C156 68.8308 154.881 69.9501 153.5 69.9501C152.119 69.9501 151 68.8308 151 67.4501C151 66.0694 152.119 64.9501 153.5 64.9501ZM180.5 64.9501C181.881 64.9501 183 66.0694 183 67.4501C183 68.8308 181.881 69.9501 180.5 69.9501C179.119 69.9501 178 68.8308 178 67.4501C178 66.0694 179.119 64.9501 180.5 64.9501ZM34.5 37.9501C35.8807 37.9501 37 39.0694 37 40.4501C37 41.8308 35.8807 42.9501 34.5 42.9501C33.1193 42.9501 32 41.8308 32 40.4501C32 39.0694 33.1193 37.9501 34.5 37.9501ZM61.5 37.9501C62.8807 37.9501 64 39.0694 64 40.4501C64 41.8308 62.8807 42.9501 61.5 42.9501C60.1193 42.9501 59 41.8308 59 40.4501C59 39.0694 60.1193 37.9501 61.5 37.9501ZM91.5 37.9501C92.8807 37.9501 94 39.0694 94 40.4501C94 41.8308 92.8807 42.9501 91.5 42.9501C90.1193 42.9501 89 41.8308 89 40.4501C89 39.0694 90.1193 37.9501 91.5 37.9501ZM123.5 37.9501C124.881 37.9501 126 39.0694 126 40.4501C126 41.8308 124.881 42.9501 123.5 42.9501C122.119 42.9501 121 41.8308 121 40.4501C121 39.0694 122.119 37.9501 123.5 37.9501ZM153.5 37.9501C154.881 37.9501 156 39.0694 156 40.4501C156 41.8308 154.881 42.9501 153.5 42.9501C152.119 42.9501 151 41.8308 151 40.4501C151 39.0694 152.119 37.9501 153.5 37.9501ZM180.5 37.9501C181.881 37.9501 183 39.0694 183 40.4501C183 41.8308 181.881 42.9501 180.5 42.9501C179.119 42.9501 178 41.8308 178 40.4501C178 39.0694 179.119 37.9501 180.5 37.9501Z" fill="#696CFF"/>
<path d="M34.5 182.95C35.8807 182.95 37 184.069 37 185.45C37 186.831 35.8807 187.95 34.5 187.95C33.1193 187.95 32 186.831 32 185.45C32 184.069 33.1193 182.95 34.5 182.95ZM61.5 182.95C62.8807 182.95 64 184.069 64 185.45C64 186.831 62.8807 187.95 61.5 187.95C60.1193 187.95 59 186.831 59 185.45C59 184.069 60.1193 182.95 61.5 182.95ZM91.5 182.95C92.8807 182.95 94 184.069 94 185.45C94 186.831 92.8807 187.95 91.5 187.95C90.1193 187.95 89 186.831 89 185.45C89 184.069 90.1193 182.95 91.5 182.95ZM123.5 182.95C124.881 182.95 126 184.069 126 185.45C126 186.831 124.881 187.95 123.5 187.95C122.119 187.95 121 186.831 121 185.45C121 184.069 122.119 182.95 123.5 182.95ZM153.5 182.95C154.881 182.95 156 184.069 156 185.45C156 186.831 154.881 187.95 153.5 187.95C152.119 187.95 151 186.831 151 185.45C151 184.069 152.119 182.95 153.5 182.95ZM180.5 182.95C181.881 182.95 183 184.069 183 185.45C183 186.831 181.881 187.95 180.5 187.95C179.119 187.95 178 186.831 178 185.45C178 184.069 179.119 182.95 180.5 182.95ZM34.5 154.95C35.8807 154.95 37 156.069 37 157.45C37 158.831 35.8807 159.95 34.5 159.95C33.1193 159.95 32 158.831 32 157.45C32 156.069 33.1193 154.95 34.5 154.95ZM61.5 154.95C62.8807 154.95 64 156.069 64 157.45C64 158.831 62.8807 159.95 61.5 159.95C60.1193 159.95 59 158.831 59 157.45C59 156.069 60.1193 154.95 61.5 154.95ZM91.5 154.95C92.8807 154.95 94 156.069 94 157.45C94 158.831 92.8807 159.95 91.5 159.95C90.1193 159.95 89 158.831 89 157.45C89 156.069 90.1193 154.95 91.5 154.95ZM123.5 154.95C124.881 154.95 126 156.069 126 157.45C126 158.831 124.881 159.95 123.5 159.95C122.119 159.95 121 158.831 121 157.45C121 156.069 122.119 154.95 123.5 154.95ZM153.5 154.95C154.881 154.95 156 156.069 156 157.45C156 158.831 154.881 159.95 153.5 159.95C152.119 159.95 151 158.831 151 157.45C151 156.069 152.119 154.95 153.5 154.95ZM180.5 154.95C181.881 154.95 183 156.069 183 157.45C183 158.831 181.881 159.95 180.5 159.95C179.119 159.95 178 158.831 178 157.45C178 156.069 179.119 154.95 180.5 154.95ZM34.5 124.95C35.8807 124.95 37 126.069 37 127.45C37 128.831 35.8807 129.95 34.5 129.95C33.1193 129.95 32 128.831 32 127.45C32 126.069 33.1193 124.95 34.5 124.95ZM61.5 124.95C62.8807 124.95 64 126.069 64 127.45C64 128.831 62.8807 129.95 61.5 129.95C60.1193 129.95 59 128.831 59 127.45C59 126.069 60.1193 124.95 61.5 124.95ZM91.5 124.95C92.8807 124.95 94 126.069 94 127.45C94 128.831 92.8807 129.95 91.5 129.95C90.1193 129.95 89 128.831 89 127.45C89 126.069 90.1193 124.95 91.5 124.95ZM123.5 124.95C124.881 124.95 126 126.069 126 127.45C126 128.831 124.881 129.95 123.5 129.95C122.119 129.95 121 128.831 121 127.45C121 126.069 122.119 124.95 123.5 124.95ZM153.5 124.95C154.881 124.95 156 126.069 156 127.45C156 128.831 154.881 129.95 153.5 129.95C152.119 129.95 151 128.831 151 127.45C151 126.069 152.119 124.95 153.5 124.95ZM180.5 124.95C181.881 124.95 183 126.069 183 127.45C183 128.831 181.881 129.95 180.5 129.95C179.119 129.95 178 128.831 178 127.45C178 126.069 179.119 124.95 180.5 124.95ZM34.5 94.9501C35.8807 94.9501 37 96.0694 37 97.4501C37 98.8308 35.8807 99.9501 34.5 99.9501C33.1193 99.9501 32 98.8308 32 97.4501C32 96.0694 33.1193 94.9501 34.5 94.9501ZM153.5 94.9501C154.881 94.9501 156 96.0694 156 97.4501C156 98.8308 154.881 99.9501 153.5 99.9501C152.119 99.9501 151 98.8308 151 97.4501C151 96.0694 152.119 94.9501 153.5 94.9501ZM91.5 94.9501C92.8807 94.9501 94 96.0694 94 97.4501C94 98.8308 92.8807 99.9501 91.5 99.9501C90.1193 99.9501 89 98.8308 89 97.4501C89 96.0694 90.1193 94.9501 91.5 94.9501ZM180.5 94.9501C181.881 94.9501 183 96.0694 183 97.4501C183 98.8308 181.881 99.9501 180.5 99.9501C179.119 99.9501 178 98.8308 178 97.4501C178 96.0694 179.119 94.9501 180.5 94.9501ZM61.5 94.9501C62.8807 94.9501 64 96.0694 64 97.4501C64 98.8308 62.8807 99.9501 61.5 99.9501C60.1193 99.9501 59 98.8308 59 97.4501C59 96.0694 60.1193 94.9501 61.5 94.9501ZM123.5 94.9501C124.881 94.9501 126 96.0694 126 97.4501C126 98.8308 124.881 99.9501 123.5 99.9501C122.119 99.9501 121 98.8308 121 97.4501C121 96.0694 122.119 94.9501 123.5 94.9501ZM34.5 64.9501C35.8807 64.9501 37 66.0694 37 67.4501C37 68.8308 35.8807 69.9501 34.5 69.9501C33.1193 69.9501 32 68.8308 32 67.4501C32 66.0694 33.1193 64.9501 34.5 64.9501ZM61.5 64.9501C62.8807 64.9501 64 66.0694 64 67.4501C64 68.8308 62.8807 69.9501 61.5 69.9501C60.1193 69.9501 59 68.8308 59 67.4501C59 66.0694 60.1193 64.9501 61.5 64.9501ZM91.5 64.9501C92.8807 64.9501 94 66.0694 94 67.4501C94 68.8308 92.8807 69.9501 91.5 69.9501C90.1193 69.9501 89 68.8308 89 67.4501C89 66.0694 90.1193 64.9501 91.5 64.9501ZM123.5 64.9501C124.881 64.9501 126 66.0694 126 67.4501C126 68.8308 124.881 69.9501 123.5 69.9501C122.119 69.9501 121 68.8308 121 67.4501C121 66.0694 122.119 64.9501 123.5 64.9501ZM153.5 64.9501C154.881 64.9501 156 66.0694 156 67.4501C156 68.8308 154.881 69.9501 153.5 69.9501C152.119 69.9501 151 68.8308 151 67.4501C151 66.0694 152.119 64.9501 153.5 64.9501ZM180.5 64.9501C181.881 64.9501 183 66.0694 183 67.4501C183 68.8308 181.881 69.9501 180.5 69.9501C179.119 69.9501 178 68.8308 178 67.4501C178 66.0694 179.119 64.9501 180.5 64.9501ZM34.5 37.9501C35.8807 37.9501 37 39.0694 37 40.4501C37 41.8308 35.8807 42.9501 34.5 42.9501C33.1193 42.9501 32 41.8308 32 40.4501C32 39.0694 33.1193 37.9501 34.5 37.9501ZM61.5 37.9501C62.8807 37.9501 64 39.0694 64 40.4501C64 41.8308 62.8807 42.9501 61.5 42.9501C60.1193 42.9501 59 41.8308 59 40.4501C59 39.0694 60.1193 37.9501 61.5 37.9501ZM91.5 37.9501C92.8807 37.9501 94 39.0694 94 40.4501C94 41.8308 92.8807 42.9501 91.5 42.9501C90.1193 42.9501 89 41.8308 89 40.4501C89 39.0694 90.1193 37.9501 91.5 37.9501ZM123.5 37.9501C124.881 37.9501 126 39.0694 126 40.4501C126 41.8308 124.881 42.9501 123.5 42.9501C122.119 42.9501 121 41.8308 121 40.4501C121 39.0694 122.119 37.9501 123.5 37.9501ZM153.5 37.9501C154.881 37.9501 156 39.0694 156 40.4501C156 41.8308 154.881 42.9501 153.5 42.9501C152.119 42.9501 151 41.8308 151 40.4501C151 39.0694 152.119 37.9501 153.5 37.9501ZM180.5 37.9501C181.881 37.9501 183 39.0694 183 40.4501C183 41.8308 181.881 42.9501 180.5 42.9501C179.119 42.9501 178 41.8308 178 40.4501C178 39.0694 179.119 37.9501 180.5 37.9501Z" fill="white" fill-opacity="0.6"/>
</g>
</g>
<defs>
<clipPath id="clip0_32_47">
<rect width="243" height="240" fill="white" transform="translate(0 0.950073)"/>
</clipPath>
<clipPath id="clip1_32_47">
<rect width="243" height="240" fill="white" transform="translate(0 0.950073)"/>
</clipPath>
</defs>
</svg>
