<svg width="243" height="241" viewBox="0 0 243 241" fill="none" xmlns="http://www.w3.org/2000/svg">
<g clip-path="url(#clip0_31_13)">
<g clip-path="url(#clip1_31_13)">
<path opacity="0.04" d="M205 0.530029H10C4.47715 0.530029 0 5.00718 0 10.53V206.53C0 212.053 4.47715 216.53 10 216.53H205C210.523 216.53 215 212.053 215 206.53V10.53C215 5.00718 210.523 0.530029 205 0.530029Z" fill="#696CFF"/>
<path opacity="0.48" d="M232.5 101.03H114.5C108.977 101.03 104.5 105.507 104.5 111.03V230.03C104.5 235.553 108.977 240.03 114.5 240.03H232.5C238.023 240.03 242.5 235.553 242.5 230.03V111.03C242.5 105.507 238.023 101.03 232.5 101.03Z" stroke="#435971" stroke-opacity="0.5"/>
<path d="M34.5 182.53C35.8807 182.53 37 183.649 37 185.03C37 186.411 35.8807 187.53 34.5 187.53C33.1193 187.53 32 186.411 32 185.03C32 183.649 33.1193 182.53 34.5 182.53ZM61.5 182.53C62.8807 182.53 64 183.649 64 185.03C64 186.411 62.8807 187.53 61.5 187.53C60.1193 187.53 59 186.411 59 185.03C59 183.649 60.1193 182.53 61.5 182.53ZM91.5 182.53C92.8807 182.53 94 183.649 94 185.03C94 186.411 92.8807 187.53 91.5 187.53C90.1193 187.53 89 186.411 89 185.03C89 183.649 90.1193 182.53 91.5 182.53ZM123.5 182.53C124.881 182.53 126 183.649 126 185.03C126 186.411 124.881 187.53 123.5 187.53C122.119 187.53 121 186.411 121 185.03C121 183.649 122.119 182.53 123.5 182.53ZM153.5 182.53C154.881 182.53 156 183.649 156 185.03C156 186.411 154.881 187.53 153.5 187.53C152.119 187.53 151 186.411 151 185.03C151 183.649 152.119 182.53 153.5 182.53ZM180.5 182.53C181.881 182.53 183 183.649 183 185.03C183 186.411 181.881 187.53 180.5 187.53C179.119 187.53 178 186.411 178 185.03C178 183.649 179.119 182.53 180.5 182.53ZM34.5 154.53C35.8807 154.53 37 155.649 37 157.03C37 158.411 35.8807 159.53 34.5 159.53C33.1193 159.53 32 158.411 32 157.03C32 155.649 33.1193 154.53 34.5 154.53ZM61.5 154.53C62.8807 154.53 64 155.649 64 157.03C64 158.411 62.8807 159.53 61.5 159.53C60.1193 159.53 59 158.411 59 157.03C59 155.649 60.1193 154.53 61.5 154.53ZM91.5 154.53C92.8807 154.53 94 155.649 94 157.03C94 158.411 92.8807 159.53 91.5 159.53C90.1193 159.53 89 158.411 89 157.03C89 155.649 90.1193 154.53 91.5 154.53ZM123.5 154.53C124.881 154.53 126 155.649 126 157.03C126 158.411 124.881 159.53 123.5 159.53C122.119 159.53 121 158.411 121 157.03C121 155.649 122.119 154.53 123.5 154.53ZM153.5 154.53C154.881 154.53 156 155.649 156 157.03C156 158.411 154.881 159.53 153.5 159.53C152.119 159.53 151 158.411 151 157.03C151 155.649 152.119 154.53 153.5 154.53ZM180.5 154.53C181.881 154.53 183 155.649 183 157.03C183 158.411 181.881 159.53 180.5 159.53C179.119 159.53 178 158.411 178 157.03C178 155.649 179.119 154.53 180.5 154.53ZM34.5 124.53C35.8807 124.53 37 125.649 37 127.03C37 128.411 35.8807 129.53 34.5 129.53C33.1193 129.53 32 128.411 32 127.03C32 125.649 33.1193 124.53 34.5 124.53ZM61.5 124.53C62.8807 124.53 64 125.649 64 127.03C64 128.411 62.8807 129.53 61.5 129.53C60.1193 129.53 59 128.411 59 127.03C59 125.649 60.1193 124.53 61.5 124.53ZM91.5 124.53C92.8807 124.53 94 125.649 94 127.03C94 128.411 92.8807 129.53 91.5 129.53C90.1193 129.53 89 128.411 89 127.03C89 125.649 90.1193 124.53 91.5 124.53ZM123.5 124.53C124.881 124.53 126 125.649 126 127.03C126 128.411 124.881 129.53 123.5 129.53C122.119 129.53 121 128.411 121 127.03C121 125.649 122.119 124.53 123.5 124.53ZM153.5 124.53C154.881 124.53 156 125.649 156 127.03C156 128.411 154.881 129.53 153.5 129.53C152.119 129.53 151 128.411 151 127.03C151 125.649 152.119 124.53 153.5 124.53ZM180.5 124.53C181.881 124.53 183 125.649 183 127.03C183 128.411 181.881 129.53 180.5 129.53C179.119 129.53 178 128.411 178 127.03C178 125.649 179.119 124.53 180.5 124.53ZM34.5 94.53C35.8807 94.53 37 95.6493 37 97.03C37 98.4107 35.8807 99.53 34.5 99.53C33.1193 99.53 32 98.4107 32 97.03C32 95.6493 33.1193 94.53 34.5 94.53ZM153.5 94.53C154.881 94.53 156 95.6493 156 97.03C156 98.4107 154.881 99.53 153.5 99.53C152.119 99.53 151 98.4107 151 97.03C151 95.6493 152.119 94.53 153.5 94.53ZM91.5 94.53C92.8807 94.53 94 95.6493 94 97.03C94 98.4107 92.8807 99.53 91.5 99.53C90.1193 99.53 89 98.4107 89 97.03C89 95.6493 90.1193 94.53 91.5 94.53ZM180.5 94.53C181.881 94.53 183 95.6493 183 97.03C183 98.4107 181.881 99.53 180.5 99.53C179.119 99.53 178 98.4107 178 97.03C178 95.6493 179.119 94.53 180.5 94.53ZM61.5 94.53C62.8807 94.53 64 95.6493 64 97.03C64 98.4107 62.8807 99.53 61.5 99.53C60.1193 99.53 59 98.4107 59 97.03C59 95.6493 60.1193 94.53 61.5 94.53ZM123.5 94.53C124.881 94.53 126 95.6493 126 97.03C126 98.4107 124.881 99.53 123.5 99.53C122.119 99.53 121 98.4107 121 97.03C121 95.6493 122.119 94.53 123.5 94.53ZM34.5 64.53C35.8807 64.53 37 65.6493 37 67.03C37 68.4107 35.8807 69.53 34.5 69.53C33.1193 69.53 32 68.4107 32 67.03C32 65.6493 33.1193 64.53 34.5 64.53ZM61.5 64.53C62.8807 64.53 64 65.6493 64 67.03C64 68.4107 62.8807 69.53 61.5 69.53C60.1193 69.53 59 68.4107 59 67.03C59 65.6493 60.1193 64.53 61.5 64.53ZM91.5 64.53C92.8807 64.53 94 65.6493 94 67.03C94 68.4107 92.8807 69.53 91.5 69.53C90.1193 69.53 89 68.4107 89 67.03C89 65.6493 90.1193 64.53 91.5 64.53ZM123.5 64.53C124.881 64.53 126 65.6493 126 67.03C126 68.4107 124.881 69.53 123.5 69.53C122.119 69.53 121 68.4107 121 67.03C121 65.6493 122.119 64.53 123.5 64.53ZM153.5 64.53C154.881 64.53 156 65.6493 156 67.03C156 68.4107 154.881 69.53 153.5 69.53C152.119 69.53 151 68.4107 151 67.03C151 65.6493 152.119 64.53 153.5 64.53ZM180.5 64.53C181.881 64.53 183 65.6493 183 67.03C183 68.4107 181.881 69.53 180.5 69.53C179.119 69.53 178 68.4107 178 67.03C178 65.6493 179.119 64.53 180.5 64.53ZM34.5 37.53C35.8807 37.53 37 38.6493 37 40.03C37 41.4107 35.8807 42.53 34.5 42.53C33.1193 42.53 32 41.4107 32 40.03C32 38.6493 33.1193 37.53 34.5 37.53ZM61.5 37.53C62.8807 37.53 64 38.6493 64 40.03C64 41.4107 62.8807 42.53 61.5 42.53C60.1193 42.53 59 41.4107 59 40.03C59 38.6493 60.1193 37.53 61.5 37.53ZM91.5 37.53C92.8807 37.53 94 38.6493 94 40.03C94 41.4107 92.8807 42.53 91.5 42.53C90.1193 42.53 89 41.4107 89 40.03C89 38.6493 90.1193 37.53 91.5 37.53ZM123.5 37.53C124.881 37.53 126 38.6493 126 40.03C126 41.4107 124.881 42.53 123.5 42.53C122.119 42.53 121 41.4107 121 40.03C121 38.6493 122.119 37.53 123.5 37.53ZM153.5 37.53C154.881 37.53 156 38.6493 156 40.03C156 41.4107 154.881 42.53 153.5 42.53C152.119 42.53 151 41.4107 151 40.03C151 38.6493 152.119 37.53 153.5 37.53ZM180.5 37.53C181.881 37.53 183 38.6493 183 40.03C183 41.4107 181.881 42.53 180.5 42.53C179.119 42.53 178 41.4107 178 40.03C178 38.6493 179.119 37.53 180.5 37.53Z" fill="#696CFF"/>
<path d="M34.5 182.53C35.8807 182.53 37 183.649 37 185.03C37 186.411 35.8807 187.53 34.5 187.53C33.1193 187.53 32 186.411 32 185.03C32 183.649 33.1193 182.53 34.5 182.53ZM61.5 182.53C62.8807 182.53 64 183.649 64 185.03C64 186.411 62.8807 187.53 61.5 187.53C60.1193 187.53 59 186.411 59 185.03C59 183.649 60.1193 182.53 61.5 182.53ZM91.5 182.53C92.8807 182.53 94 183.649 94 185.03C94 186.411 92.8807 187.53 91.5 187.53C90.1193 187.53 89 186.411 89 185.03C89 183.649 90.1193 182.53 91.5 182.53ZM123.5 182.53C124.881 182.53 126 183.649 126 185.03C126 186.411 124.881 187.53 123.5 187.53C122.119 187.53 121 186.411 121 185.03C121 183.649 122.119 182.53 123.5 182.53ZM153.5 182.53C154.881 182.53 156 183.649 156 185.03C156 186.411 154.881 187.53 153.5 187.53C152.119 187.53 151 186.411 151 185.03C151 183.649 152.119 182.53 153.5 182.53ZM180.5 182.53C181.881 182.53 183 183.649 183 185.03C183 186.411 181.881 187.53 180.5 187.53C179.119 187.53 178 186.411 178 185.03C178 183.649 179.119 182.53 180.5 182.53ZM34.5 154.53C35.8807 154.53 37 155.649 37 157.03C37 158.411 35.8807 159.53 34.5 159.53C33.1193 159.53 32 158.411 32 157.03C32 155.649 33.1193 154.53 34.5 154.53ZM61.5 154.53C62.8807 154.53 64 155.649 64 157.03C64 158.411 62.8807 159.53 61.5 159.53C60.1193 159.53 59 158.411 59 157.03C59 155.649 60.1193 154.53 61.5 154.53ZM91.5 154.53C92.8807 154.53 94 155.649 94 157.03C94 158.411 92.8807 159.53 91.5 159.53C90.1193 159.53 89 158.411 89 157.03C89 155.649 90.1193 154.53 91.5 154.53ZM123.5 154.53C124.881 154.53 126 155.649 126 157.03C126 158.411 124.881 159.53 123.5 159.53C122.119 159.53 121 158.411 121 157.03C121 155.649 122.119 154.53 123.5 154.53ZM153.5 154.53C154.881 154.53 156 155.649 156 157.03C156 158.411 154.881 159.53 153.5 159.53C152.119 159.53 151 158.411 151 157.03C151 155.649 152.119 154.53 153.5 154.53ZM180.5 154.53C181.881 154.53 183 155.649 183 157.03C183 158.411 181.881 159.53 180.5 159.53C179.119 159.53 178 158.411 178 157.03C178 155.649 179.119 154.53 180.5 154.53ZM34.5 124.53C35.8807 124.53 37 125.649 37 127.03C37 128.411 35.8807 129.53 34.5 129.53C33.1193 129.53 32 128.411 32 127.03C32 125.649 33.1193 124.53 34.5 124.53ZM61.5 124.53C62.8807 124.53 64 125.649 64 127.03C64 128.411 62.8807 129.53 61.5 129.53C60.1193 129.53 59 128.411 59 127.03C59 125.649 60.1193 124.53 61.5 124.53ZM91.5 124.53C92.8807 124.53 94 125.649 94 127.03C94 128.411 92.8807 129.53 91.5 129.53C90.1193 129.53 89 128.411 89 127.03C89 125.649 90.1193 124.53 91.5 124.53ZM123.5 124.53C124.881 124.53 126 125.649 126 127.03C126 128.411 124.881 129.53 123.5 129.53C122.119 129.53 121 128.411 121 127.03C121 125.649 122.119 124.53 123.5 124.53ZM153.5 124.53C154.881 124.53 156 125.649 156 127.03C156 128.411 154.881 129.53 153.5 129.53C152.119 129.53 151 128.411 151 127.03C151 125.649 152.119 124.53 153.5 124.53ZM180.5 124.53C181.881 124.53 183 125.649 183 127.03C183 128.411 181.881 129.53 180.5 129.53C179.119 129.53 178 128.411 178 127.03C178 125.649 179.119 124.53 180.5 124.53ZM34.5 94.53C35.8807 94.53 37 95.6493 37 97.03C37 98.4107 35.8807 99.53 34.5 99.53C33.1193 99.53 32 98.4107 32 97.03C32 95.6493 33.1193 94.53 34.5 94.53ZM153.5 94.53C154.881 94.53 156 95.6493 156 97.03C156 98.4107 154.881 99.53 153.5 99.53C152.119 99.53 151 98.4107 151 97.03C151 95.6493 152.119 94.53 153.5 94.53ZM91.5 94.53C92.8807 94.53 94 95.6493 94 97.03C94 98.4107 92.8807 99.53 91.5 99.53C90.1193 99.53 89 98.4107 89 97.03C89 95.6493 90.1193 94.53 91.5 94.53ZM180.5 94.53C181.881 94.53 183 95.6493 183 97.03C183 98.4107 181.881 99.53 180.5 99.53C179.119 99.53 178 98.4107 178 97.03C178 95.6493 179.119 94.53 180.5 94.53ZM61.5 94.53C62.8807 94.53 64 95.6493 64 97.03C64 98.4107 62.8807 99.53 61.5 99.53C60.1193 99.53 59 98.4107 59 97.03C59 95.6493 60.1193 94.53 61.5 94.53ZM123.5 94.53C124.881 94.53 126 95.6493 126 97.03C126 98.4107 124.881 99.53 123.5 99.53C122.119 99.53 121 98.4107 121 97.03C121 95.6493 122.119 94.53 123.5 94.53ZM34.5 64.53C35.8807 64.53 37 65.6493 37 67.03C37 68.4107 35.8807 69.53 34.5 69.53C33.1193 69.53 32 68.4107 32 67.03C32 65.6493 33.1193 64.53 34.5 64.53ZM61.5 64.53C62.8807 64.53 64 65.6493 64 67.03C64 68.4107 62.8807 69.53 61.5 69.53C60.1193 69.53 59 68.4107 59 67.03C59 65.6493 60.1193 64.53 61.5 64.53ZM91.5 64.53C92.8807 64.53 94 65.6493 94 67.03C94 68.4107 92.8807 69.53 91.5 69.53C90.1193 69.53 89 68.4107 89 67.03C89 65.6493 90.1193 64.53 91.5 64.53ZM123.5 64.53C124.881 64.53 126 65.6493 126 67.03C126 68.4107 124.881 69.53 123.5 69.53C122.119 69.53 121 68.4107 121 67.03C121 65.6493 122.119 64.53 123.5 64.53ZM153.5 64.53C154.881 64.53 156 65.6493 156 67.03C156 68.4107 154.881 69.53 153.5 69.53C152.119 69.53 151 68.4107 151 67.03C151 65.6493 152.119 64.53 153.5 64.53ZM180.5 64.53C181.881 64.53 183 65.6493 183 67.03C183 68.4107 181.881 69.53 180.5 69.53C179.119 69.53 178 68.4107 178 67.03C178 65.6493 179.119 64.53 180.5 64.53ZM34.5 37.53C35.8807 37.53 37 38.6493 37 40.03C37 41.4107 35.8807 42.53 34.5 42.53C33.1193 42.53 32 41.4107 32 40.03C32 38.6493 33.1193 37.53 34.5 37.53ZM61.5 37.53C62.8807 37.53 64 38.6493 64 40.03C64 41.4107 62.8807 42.53 61.5 42.53C60.1193 42.53 59 41.4107 59 40.03C59 38.6493 60.1193 37.53 61.5 37.53ZM91.5 37.53C92.8807 37.53 94 38.6493 94 40.03C94 41.4107 92.8807 42.53 91.5 42.53C90.1193 42.53 89 41.4107 89 40.03C89 38.6493 90.1193 37.53 91.5 37.53ZM123.5 37.53C124.881 37.53 126 38.6493 126 40.03C126 41.4107 124.881 42.53 123.5 42.53C122.119 42.53 121 41.4107 121 40.03C121 38.6493 122.119 37.53 123.5 37.53ZM153.5 37.53C154.881 37.53 156 38.6493 156 40.03C156 41.4107 154.881 42.53 153.5 42.53C152.119 42.53 151 41.4107 151 40.03C151 38.6493 152.119 37.53 153.5 37.53ZM180.5 37.53C181.881 37.53 183 38.6493 183 40.03C183 41.4107 181.881 42.53 180.5 42.53C179.119 42.53 178 41.4107 178 40.03C178 38.6493 179.119 37.53 180.5 37.53Z" fill="white" fill-opacity="0.6"/>
</g>
</g>
<defs>
<clipPath id="clip0_31_13">
<rect width="243" height="240" fill="white" transform="translate(0 0.530029)"/>
</clipPath>
<clipPath id="clip1_31_13">
<rect width="243" height="240" fill="white" transform="translate(0 0.530029)"/>
</clipPath>
</defs>
</svg>
