<svg width="20" height="21" viewBox="0 0 20 21" fill="none" xmlns="http://www.w3.org/2000/svg">
<g clip-path="url(#clip0_92_262)">
<path d="M0 16.211C0 17.1312 0.746528 17.8777 1.66667 17.8777H18.3333C19.2535 17.8777 20 17.1312 20 16.211V10.0999H0V16.211ZM6.66667 13.8499C6.66667 13.6208 6.85417 13.4333 7.08333 13.4333H11.8056C12.0347 13.4333 12.2222 13.6208 12.2222 13.8499V15.2388C12.2222 15.468 12.0347 15.6555 11.8056 15.6555H7.08333C6.85417 15.6555 6.66667 15.468 6.66667 15.2388V13.8499ZM2.22222 13.8499C2.22222 13.6208 2.40972 13.4333 2.63889 13.4333H5.13889C5.36806 13.4333 5.55556 13.6208 5.55556 13.8499V15.2388C5.55556 15.468 5.36806 15.6555 5.13889 15.6555H2.63889C2.40972 15.6555 2.22222 15.468 2.22222 15.2388V13.8499ZM20 3.98881V5.65548H0V3.98881C0 3.06867 0.746528 2.32214 1.66667 2.32214H18.3333C19.2535 2.32214 20 3.06867 20 3.98881Z" fill="#B4BDC6"/>
</g>
<defs>
<clipPath id="clip0_92_262">
<rect width="20" height="20" fill="white" transform="translate(0 0.0999756)"/>
</clipPath>
</defs>
</svg>
